<?xml version="1.0" encoding="utf-8"?>
<!-- Generator: Adobe Illustrator 16.0.0, SVG Export Plug-In . SVG Version: 6.00 Build 0)  -->
<!DOCTYPE svg PUBLIC "-//W3C//DTD SVG 1.1//EN" "http://www.w3.org/Graphics/SVG/1.1/DTD/svg11.dtd">
<svg version="1.1" id="Layer_1" xmlns="http://www.w3.org/2000/svg" xmlns:xlink="http://www.w3.org/1999/xlink" x="0px" y="0px"
	 width="800px" height="500px" viewBox="0 0 800 500" enable-background="new 0 0 800 500" xml:space="preserve">
<path fill="#8C14FC" d="M554.715,377.548l23.601-225.722h-46.145l2.572-25.113h124.813l-2.572,25.113h-44.781L588.45,377.548
	H554.715z"/>
<path fill="#5200B2" d="M632.155,377.548l26.322-250.835h33.89l-11.346,108.626h65.962l11.344-108.626h33.892l-26.327,250.835
	h-33.888l12.407-118.005h-65.964l-12.405,118.005H632.155z"/>
<polygon fill="#161616" points="492.789,353.188 516.391,126.713 482.501,126.713 458.732,353.188 427.519,353.188 427.519,377.548 
	456.178,377.548 492.789,377.548 554.816,377.548 557.54,353.188 "/>
<path fill="#161616" d="M323.667,377.548l26.325-250.835h33.887l-12.405,119.518l70.952-119.518h31.47L412.473,237l43.421,140.548
	h-32.982l-37.972-124.961l-16.944,26.774l-10.439,98.187H323.667z"/>
<polygon fill="#8C14FC" points="513.771,151.826 427.519,151.826 442.427,126.713 516.391,126.713 "/>
<g>
	<path fill="#161616" d="M293.499,154.569c-2.712-11.287-8.422-21.108-17.146-29.457c-8.714-8.348-21.207-14.684-37.479-19.01
		c-16.272-4.323-36.32-6.485-60.146-6.485c-46.686,0-81.504,8.017-104.46,24.054c-22.954,16.034-37.046,39.486-42.277,70.354
		L12.522,308.253c-1.553,7.327-2.324,14.325-2.324,20.988c0,6.67,0.771,12.943,2.324,18.829c2.906,11.771,8.522,21.92,16.854,30.447
		c8.328,8.41,20.675,14.866,37.048,19.369c16.365,4.506,36.559,6.758,60.583,6.758c23.827,0,44.646-2.226,62.472-6.669
		c17.819-4.444,32.444-10.987,43.875-19.64c11.426-8.647,20.434-18.703,27.022-30.178c6.582-11.47,11.136-24.708,13.658-39.724
		l19.756-114.409c1.167-7.207,1.742-13.991,1.742-20.359C295.532,166.82,294.852,160.456,293.499,154.569z"/>
	<path fill="#4E0D9B" d="M272.324,169.264c-2.306-9.588-7.154-17.937-14.564-25.027c-7.4-7.09-18.014-12.471-31.833-16.149
		c-13.827-3.67-30.859-5.505-51.096-5.505c-39.652,0-69.232,6.809-88.728,20.428c-19.501,13.628-31.472,33.542-35.911,59.767
		l-16.536,97.031c-1.319,6.211-1.976,12.158-1.976,17.826c0,5.661,0.657,10.988,1.976,15.99
		c2.463,10.004,7.235,18.615,14.311,25.858c7.077,7.144,17.567,12.629,31.473,16.457c13.895,3.825,31.053,5.741,51.456,5.741
		c20.247,0,37.927-1.889,53.066-5.666c15.134-3.771,27.56-9.334,37.271-16.687c9.706-7.338,17.357-15.884,22.953-25.634
		c5.594-9.742,9.458-20.986,11.601-33.736l16.781-97.182c0.996-6.124,1.48-11.883,1.48-17.289
		C274.05,179.666,273.473,174.258,272.324,169.264z"/>
	<path fill="#8C14FC" d="M255.505,180.93c-1.979-8.24-6.148-15.411-12.513-21.503c-6.36-6.091-15.479-10.716-27.351-13.875
		c-11.88-3.153-26.513-4.73-43.901-4.73c-34.071,0-59.487,5.851-76.238,17.551c-16.755,11.71-27.04,28.82-30.855,51.353
		l-14.208,83.37c-1.133,5.337-1.697,10.447-1.697,15.316c0,4.863,0.564,9.44,1.697,13.738c2.118,8.596,6.216,15.996,12.296,22.219
		c6.081,6.14,15.093,10.853,27.042,14.142c11.939,3.286,26.682,4.931,44.211,4.931c17.397,0,32.586-1.621,45.596-4.868
		c13.004-3.238,23.68-8.017,32.023-14.335c8.34-6.307,14.914-13.649,19.723-22.023c4.806-8.373,8.126-18.033,9.968-28.99
		l14.417-83.499c0.857-5.262,1.274-10.209,1.274-14.855C256.989,189.867,256.493,185.222,255.505,180.93z"/>
	<path fill="#2E0070" d="M223.667,203.018c-1.367-5.684-4.244-10.63-8.635-14.832c-4.385-4.204-10.676-7.393-18.866-9.573
		c-8.193-2.173-18.286-3.264-30.28-3.264c-23.502,0-41.037,4.037-52.59,12.108c-11.557,8.078-18.652,19.877-21.285,35.421
		l-9.8,57.513c-0.78,3.679-1.171,7.202-1.171,10.563c0,3.356,0.392,6.513,1.171,9.479c1.461,5.931,4.286,11.033,8.482,15.326
		c4.193,4.236,10.411,7.488,18.654,9.754c8.234,2.267,18.402,3.4,30.494,3.4c12.001,0,22.479-1.121,31.453-3.359
		c8.971-2.23,16.335-5.528,22.089-9.889c5.752-4.349,10.287-9.411,13.605-15.189c3.316-5.773,5.606-12.439,6.874-19.994
		l9.945-57.603c0.592-3.627,0.879-7.042,0.879-10.245C224.688,209.185,224.346,205.978,223.667,203.018z"/>
</g>
<polygon fill="#161616" points="588.545,377.548 527.518,377.548 527.518,353.188 591.014,353.188 "/>
<polygon fill="#5200B2" points="689.744,151.826 632.155,151.826 632.155,126.713 692.367,126.713 "/>
</svg>
